<?xml version="1.0" standalone="no"?>
<!DOCTYPE svg PUBLIC "-//W3C//DTD SVG 20010904//EN"
 "http://www.w3.org/TR/2001/REC-SVG-20010904/DTD/svg10.dtd">
<svg version="1.0" xmlns="http://www.w3.org/2000/svg"
 width="263.000000pt" height="191.000000pt" viewBox="0 0 263.000000 191.000000"
 preserveAspectRatio="xMidYMid meet">

<g transform="translate(0.000000,191.000000) scale(0.100000,-0.100000)"
fill="#000000" stroke="none">
<path d="M1455 1437 c-53 -133 -117 -289 -140 -347 l-43 -105 -20 45 c-10 25
-45 111 -77 193 l-59 147 -77 0 -78 0 86 -207 c46 -115 101 -249 121 -300 l37
-92 57 142 c31 78 113 280 181 450 69 169 122 309 117 312 -4 3 -51 -104 -105
-238z"/>
<path d="M1291 821 c-122 -302 -225 -560 -228 -573 -15 -63 22 16 98 204 45
114 85 205 89 203 4 -3 18 -32 30 -65 12 -33 25 -62 29 -64 3 -2 68 145 144
328 76 182 155 373 177 424 l39 92 -78 0 -77 0 -223 -549z"/>
</g>
</svg>
