<?xml version="1.0" standalone="no"?>
<!DOCTYPE svg PUBLIC "-//W3C//DTD SVG 20010904//EN"
 "http://www.w3.org/TR/2001/REC-SVG-20010904/DTD/svg10.dtd">
<svg version="1.0" xmlns="http://www.w3.org/2000/svg"
 width="509.000000pt" height="490.000000pt" viewBox="0 0 509.000000 490.000000"
 preserveAspectRatio="xMidYMid meet">

<g transform="translate(0.000000,490.000000) scale(0.100000,-0.100000)"
fill="#000000" stroke="none">
<path d="M1409 4760 c-111 -13 -321 -76 -419 -125 -88 -44 -212 -119 -247
-150 -110 -94 -141 -123 -158 -145 -11 -14 -27 -30 -36 -37 -23 -17 -122 -167
-167 -254 -74 -141 -109 -252 -142 -449 -15 -92 -24 -1885 -11 -2145 13 -254
41 -377 126 -560 73 -157 185 -306 318 -424 150 -132 312 -224 497 -280 192
-58 122 -55 1375 -56 1077 0 1165 1 1230 18 310 78 498 181 699 382 181 180
303 407 356 660 31 146 37 402 33 1425 -2 803 -8 945 -43 1114 -31 154 -154
421 -220 481 -11 10 -20 23 -20 29 0 16 -144 165 -215 222 -182 147 -441 260
-670 293 -83 12 -2184 13 -2286 1z m2276 -282 c55 -14 129 -39 165 -55 36 -17
74 -33 85 -37 47 -16 165 -95 235 -156 212 -185 299 -319 391 -605 11 -33 24
-114 29 -180 12 -155 12 -1832 0 -1992 -8 -100 -17 -143 -51 -245 -23 -68 -45
-127 -49 -133 -4 -5 -24 -41 -45 -78 -63 -118 -151 -223 -277 -332 -47 -41
-88 -75 -91 -75 -3 0 -34 -17 -68 -38 -93 -56 -223 -109 -330 -134 -93 -22
-104 -22 -1094 -25 l-1000 -3 -132 24 c-81 15 -156 36 -195 54 -35 16 -74 33
-88 37 -33 10 -145 80 -191 119 -109 91 -145 123 -163 145 -12 13 -33 37 -48
53 -16 16 -28 32 -28 37 0 5 -11 20 -25 33 -14 14 -36 45 -49 69 -13 24 -35
64 -49 89 -14 25 -44 100 -66 167 -34 97 -44 145 -51 235 -14 160 -13 1931 1
2038 20 161 119 405 209 517 14 17 38 49 54 72 33 45 102 113 160 157 22 16
50 39 62 52 13 12 29 22 37 22 8 0 22 8 31 19 9 10 45 31 79 46 34 15 82 36
107 47 25 11 54 23 65 28 28 12 149 38 220 49 33 5 510 8 1060 7 l1000 -3 100
-25z"/>
<path d="M2395 4430 l-860 -6 -100 -26 c-56 -14 -135 -42 -178 -62 -42 -20
-80 -36 -84 -36 -20 -1 -253 -172 -262 -193 -1 -4 -21 -24 -42 -44 -21 -20
-39 -39 -39 -43 0 -4 -15 -24 -33 -44 -19 -20 -40 -49 -48 -64 -7 -15 -26 -47
-41 -72 -14 -25 -36 -70 -48 -100 -11 -30 -25 -64 -30 -75 -23 -51 -41 -130
-55 -242 -23 -177 -16 -1904 7 -2028 9 -44 21 -91 26 -105 6 -14 27 -67 47
-118 20 -52 44 -106 54 -120 10 -15 35 -54 56 -87 53 -83 216 -243 295 -290
36 -21 72 -44 80 -51 32 -26 212 -94 301 -114 147 -33 373 -40 1254 -37 l810
3 115 26 c131 30 235 68 320 118 118 70 167 106 250 184 52 48 116 128 161
199 50 79 61 101 105 217 68 178 67 155 71 1170 5 1067 3 1088 -73 1295 -25
66 -55 136 -67 155 -12 19 -29 48 -37 64 -8 16 -32 48 -52 71 -21 24 -38 47
-38 51 0 16 -168 167 -232 209 -204 134 -384 189 -643 197 -71 3 -517 2 -990
-2z m-243 -897 c10 -9 18 -23 18 -32 0 -12 -3 -12 -12 -3 -21 21 -145 14 -233
-13 -171 -52 -337 -126 -389 -174 -12 -10 -36 -26 -54 -35 -18 -10 -36 -25
-39 -34 -3 -9 -12 -24 -19 -32 -7 -9 -24 -45 -38 -80 -13 -36 -35 -87 -49
-115 -14 -27 -34 -77 -46 -110 -11 -33 -28 -78 -37 -100 -10 -22 -18 -44 -20
-50 -6 -32 -47 -191 -64 -255 -42 -153 -66 -317 -80 -543 l-10 -159 32 -46
c18 -26 37 -49 43 -51 5 -2 26 -20 47 -40 63 -63 112 -98 184 -134 76 -38 255
-91 370 -109 l71 -12 39 43 c21 24 41 49 43 55 7 21 91 105 91 91 0 -7 -18
-33 -40 -57 -22 -23 -59 -69 -83 -100 -39 -54 -44 -58 -82 -58 -179 0 -458
102 -580 211 -73 65 -144 137 -154 156 -14 28 -15 274 0 418 6 59 19 140 30
179 11 39 28 112 39 163 11 51 33 134 49 185 16 51 36 116 44 143 17 57 77
204 130 315 19 41 38 84 41 96 4 11 28 36 54 54 26 19 49 36 52 39 15 17 256
138 300 152 83 25 239 57 284 58 33 1 55 -4 68 -16z m953 -8 c142 -21 210 -44
365 -123 147 -76 214 -126 234 -174 10 -24 29 -66 41 -93 13 -28 40 -91 60
-140 19 -50 39 -98 45 -107 5 -9 19 -54 30 -99 12 -46 27 -97 34 -114 16 -37
67 -245 95 -385 30 -149 43 -313 35 -437 l-7 -107 -41 -44 c-23 -25 -50 -52
-60 -61 -11 -9 -38 -32 -60 -52 -23 -20 -57 -44 -76 -54 -19 -9 -49 -28 -65
-40 -17 -13 -47 -28 -65 -33 -19 -6 -72 -25 -117 -41 -70 -26 -99 -31 -194
-33 -83 -2 -113 0 -116 10 -3 8 8 12 39 12 125 2 405 85 433 130 3 5 14 10 23
10 29 0 182 134 241 210 23 31 23 34 18 203 -3 101 -12 201 -21 242 -9 39 -21
108 -26 155 -6 47 -26 135 -45 195 -18 61 -36 121 -38 135 -9 39 -91 265 -135
370 -59 140 -92 200 -121 215 -14 7 -50 29 -80 49 -29 20 -57 36 -62 36 -5 0
-30 13 -56 29 -44 27 -119 52 -298 101 -79 22 -165 26 -183 8 -22 -22 -25 2
-3 26 13 14 31 22 44 20 12 -2 72 -10 132 -19z m-255 -110 c225 -42 457 -112
590 -180 43 -22 68 -50 56 -62 -2 -3 -48 16 -102 42 -54 26 -121 54 -149 62
-27 8 -65 21 -84 30 -18 8 -39 16 -45 18 -6 1 -18 5 -26 8 -15 7 -183 39 -300
58 -113 19 -470 16 -588 -4 -138 -24 -223 -44 -306 -73 -38 -13 -72 -21 -77
-19 -4 3 -61 -21 -126 -54 -134 -68 -177 -82 -167 -57 3 9 12 16 18 16 7 0 31
16 53 35 23 19 45 35 49 35 4 0 39 20 78 44 77 47 130 64 141 46 8 -14 51 -8
141 20 53 16 168 39 269 54 70 10 493 -3 575 -19z m-725 -835 c4 -6 -6 -10
-22 -10 -112 0 -207 -95 -227 -225 -8 -52 13 -139 47 -192 50 -78 171 -114
269 -79 46 16 40 4 -13 -29 -52 -33 -150 -35 -211 -4 -132 67 -191 227 -139
375 24 66 85 131 145 155 46 19 142 24 151 9z m943 -6 c63 -18 117 -67 155
-139 29 -55 31 -203 3 -255 -42 -79 -118 -144 -187 -159 -54 -12 -135 2 -169
29 -14 12 -37 28 -52 38 -16 10 -42 45 -60 82 -29 56 -33 75 -33 140 1 87 28
151 89 210 69 65 152 83 254 54z m430 -712 c-75 -54 -298 -155 -371 -169 -17
-3 -36 -9 -42 -13 -60 -42 -415 -87 -592 -75 -218 14 -368 38 -438 70 -16 7
-48 15 -69 17 -37 3 -40 1 -48 -29 -5 -18 -11 -33 -13 -33 -7 0 -79 41 -89 51
-6 5 -17 9 -26 9 -9 0 -25 8 -36 18 -10 9 -38 30 -61 46 -53 36 -133 120 -133
141 0 8 2 15 5 15 8 0 90 -54 93 -62 5 -11 122 -101 162 -125 59 -35 75 -37
88 -8 12 25 12 25 49 10 49 -21 243 -64 358 -81 178 -25 452 -11 620 32 33 8
76 19 95 23 19 4 81 26 138 49 56 23 107 42 112 42 5 0 34 16 64 35 30 19 59
35 64 35 5 0 26 13 48 29 37 28 39 29 42 9 2 -12 -5 -26 -20 -36z"/>
<path d="M2885 2556 c-78 -35 -140 -145 -139 -246 1 -151 91 -250 228 -250 71
0 147 37 180 87 33 51 60 147 48 170 -6 10 -13 45 -17 78 -7 53 -13 65 -54
108 -32 33 -58 51 -86 57 -57 13 -125 11 -160 -4z"/>
</g>
</svg>
